<?xml version="1.0" encoding="UTF-8"?>
<svg id="Layer_1" xmlns="http://www.w3.org/2000/svg" version="1.1" viewBox="0 0 1024 1024">
  <path d="M58.639,595.781C-27.397,481.886-18.222,331.036,82.628,225.512c27.654-28.935,75.166-76.448,103.687-96.983,78.853-56.773,241.135-58.321,332.588,10.769,28.725,22.591,47.754,38.715,73.558,64.366l-285.041,290.279-65.047-65.179,216.682-222.199c-87.146-61.324-183.81-51.799-259.45,26.882-20.026,20.831-41.331,44.475-59.928,66.387-60.759,71.589-70.262,133.926-28.018,206.579,17.116,29.437,50.379,58.413,74.552,78.803,44.894,36.123,137.873,47.717,197.868-10.522,19.003-18.447,42.606-42.088,59.888-59.317l63.819,64.95c-27.065,27.713-45.04,55.798-87.399,87.842-82.642,62.517-205.248,47.714-258.941,18.174-43.652-24.015-88.214-70.751-102.808-90.561" fill="white"/>
  <path d="M966.92,426.315c83.916,105.89,74.794,268.573-23.99,370.27-30.762,31.67-61.63,62.47-103.687,96.983-75.111,61.638-241.135,58.321-332.588-10.769-28.725-22.591-47.754-38.715-73.558-64.366l285.041-290.279,65.047,65.179-216.682,222.199c87.146,61.324,179.92,38.862,257.006-28.858,22.686-19.93,44.139-42.195,62.372-64.412,18.01-21.945,29.119-38.554,37.749-58.006,22.819-49.566,13.644-109.397-9.73-148.573-18.036-28.882-50.21-58.615-74.552-78.803-46.674-38.711-131.322-48.582-187.121-.754-20.108,17.236-53.353,53.364-70.636,70.593l-63.819-64.95c27.065-27.713,59.829-58.697,90.044-84.976,90.341-78.574,220.788-40.321,256.296-21.04,43.784,23.774,88.214,70.751,102.808,90.561" fill="white"/>
</svg>